<svg width="830" height="578" viewBox="0 0 830 578" fill="none" xmlns="http://www.w3.org/2000/svg">
<g opacity="0.05" clip-path="url(#clip0)">
<path d="M681.646 467.477C677.138 446.524 666.28 425.16 656.983 405.3C651.374 393.459 642.866 379.135 642.046 366.2C656.803 372.637 664.731 384.118 671.072 398.43C682.29 422.113 690.322 453.625 681.646 467.477Z" fill="#9D791C"/>
<path d="M724.419 563.092C689.358 490.168 636.159 413.776 583.615 352.859C496.562 251.832 378.202 175.439 250.196 137.707C169.263 113.475 64.3718 96.8774 21.2684 132.356C124.923 130.635 198.479 138.83 249.98 148.917C368.58 172.395 504.008 268.766 578.358 357.239C631.041 419.95 683.001 503.66 718.656 577.26C721.512 574.511 723.414 568.767 724.419 563.092Z" fill="#9D791C"/>
<path d="M444.342 400.491C487.512 391.546 524.975 399.833 565.615 414.193C601.258 426.954 634.847 445.832 652.705 471.347C658.187 479.226 658.617 482.443 655.925 482.651C653.082 483.233 647.864 481.11 641.376 478.906C576.578 455.588 544.526 416.912 444.342 400.491Z" fill="#9D791C"/>
<path d="M482.714 243.157C450.269 220.399 433.98 182.487 401.383 160.101C374.143 141.633 336.58 125.049 315.334 116.407C331.786 114.408 344.939 114.11 365.907 119.164C390.23 125.582 413.079 140.96 431.127 159.599C455.195 183.73 462.248 216.581 482.714 243.157Z" fill="#9D791C"/>
<path d="M266.093 128.53C303.646 121.646 413.102 162.261 414.387 197.546C363.609 166.461 334.397 152.84 266.093 128.53Z" fill="#9D791C"/>
<path d="M500.379 238.177C496.456 231.801 488.819 221.742 492.902 213.843C502.371 217.261 512.188 225.165 518.941 233.126C529.629 245.296 541.454 267.487 546.43 285.154C547.895 290.096 548.988 294.885 549.113 298.847C530.611 281.326 513.928 259.331 500.379 238.177Z" fill="#9D791C"/>
<path d="M577.88 337.056C574.893 324.108 572.032 315.123 564.997 291.838C561.182 279.858 559.206 272.97 554.841 265.546C559.093 266.841 565.486 272.483 570.305 278.789C582.086 295.748 586.114 322.155 582.409 341.94L577.88 337.056Z" fill="#9D791C"/>
<path d="M627.771 391.679C620.216 380.35 612.636 373.355 606.256 365.545C608.487 354.721 604.663 319.272 594.278 306.356C600.905 310.356 605.282 315.613 609.66 320.87C623.235 337.69 636.941 370.206 627.771 391.679Z" fill="#9D791C"/>
<path d="M78.1027 188.066C122.972 182.419 142.143 150.241 166.574 151.054C180.321 151.432 191.446 152.916 213.09 157.375C185.809 171.046 115.054 194.407 78.1027 188.066Z" fill="#9D791C"/>
<path d="M94.8646 234.427C134.199 229.57 180.588 194.559 230.025 187.294C295.54 177.88 320.475 194.541 371.495 210.081C359.377 212.104 347.285 209.792 335.18 209.648C278.921 208.054 222.256 224.545 167.506 233.125C148.432 236.229 116.262 242.697 94.8646 234.427Z" fill="#9D791C"/>
<path d="M142.324 283.281C175.348 271.512 208.164 257.052 241.933 245.586C268.665 236.472 298.144 230.213 327.597 228.29C341.951 227.176 400.074 229.528 432.254 246.53C423.89 245.734 396.105 243.557 347.621 253.817C314.25 261.099 279.414 263.44 247.313 270.805C225.163 276.134 205.413 279.832 183.124 283.366C171.227 285.914 153.215 286.408 142.324 283.281Z" fill="#9D791C"/>
<path d="M338.875 392.785C357.493 390.799 377.035 384.409 396.468 383.624C452.735 371.316 533.026 377.906 584.879 404.214C592.03 407.992 598.878 412.516 605.227 412.926C607.003 403.22 591.318 389.452 584.098 384.776C524.703 344.972 458.563 346.311 391.05 364.907C368.817 371.506 345.826 379.969 338.875 392.785Z" fill="#9D791C"/>
<path d="M215.137 328.544C233.712 321.326 247.991 307.581 264.716 297.438C314.13 268.871 372.191 256.424 428.259 264.893C448.716 268 476.462 276.68 501.839 294.39C480.719 289.71 462.347 287.885 445.536 287.564C390.989 287.101 325.586 302.646 271.612 318.928C251.698 325.167 236.408 332.852 215.137 328.544Z" fill="#9D791C"/>
<path d="M277.704 362.686C299.348 367.146 320.324 358.297 341.204 352.886C397.857 338.563 475.616 331.087 516.75 337.825C524.438 339.215 547.959 342.265 543.802 337.532C538.086 331.296 530.562 327.366 522.513 323.658C478.241 304.344 433.259 303.862 388.958 314.52C348.7 323.78 314.291 354.974 277.704 362.686Z" fill="#9D791C"/>
</g>
<defs>
<clipPath id="clip0">
<rect width="814.835" height="292.217" fill="white" transform="translate(75.11) rotate(22.1362)"/>
</clipPath>
</defs>
</svg>
