<svg width="25" height="9" viewBox="0 0 25 9" fill="none" xmlns="http://www.w3.org/2000/svg">
<path d="M22.642 6.29767C22.2716 5.75222 21.7161 5.26875 21.2222 4.81007C20.9259 4.53734 20.5185 4.22742 20.3457 3.86792C20.8395 3.88032 21.1975 4.11585 21.5432 4.45056C22.1358 4.99602 22.7284 5.8018 22.642 6.29767Z" fill="#9D791C"/>
<path d="M24.963 8.52899C23.1235 6.85544 20.7284 5.29346 18.5309 4.16536C14.8889 2.29346 10.642 1.48767 6.5679 1.89676C3.98765 2.1447 0.814815 2.8885 0 4.40089C2.92593 3.14883 5.11111 2.52899 6.69136 2.21908C10.3333 1.51246 15.2963 2.69015 18.4321 4.35131C20.6543 5.52899 23.0988 7.31412 24.963 9.00007C25.0123 8.8885 25 8.70255 24.963 8.52899Z" fill="#9D791C"/>
<path d="M15.1235 7.14075C16.2469 6.38455 17.4074 6.1862 18.7284 6.12422C19.8889 6.07463 21.0617 6.22339 21.8642 6.74405C22.1111 6.90521 22.1605 6.99199 22.0864 7.02918C22.0123 7.07876 21.8395 7.07876 21.6296 7.09116C19.5185 7.17794 18.1605 6.44653 15.1235 7.14075Z" fill="#9D791C"/>
<path d="M14.3951 2.20673C13.2099 1.934 12.3086 1.04144 11.1235 0.781112C10.1358 0.570368 8.87654 0.533178 8.17284 0.533178C8.61728 0.285244 8.98766 0.124087 9.64198 0.0249132C10.4074 -0.0742604 11.2346 0.0992934 11.963 0.421607C12.9259 0.830698 13.5062 1.68607 14.3951 2.20673Z" fill="#9D791C"/>
<path d="M6.91358 1.45046C7.90124 0.818224 11.4815 0.706653 11.9259 1.69839C10.1235 1.40087 9.1358 1.35128 6.91358 1.45046Z" fill="#9D791C"/>
<path d="M14.8395 1.8596C14.6543 1.72324 14.321 1.52489 14.3457 1.25216C14.6543 1.23976 15.0247 1.35134 15.3086 1.5001C15.7531 1.72324 16.3457 2.2191 16.6914 2.66538C16.7901 2.78935 16.8765 2.91332 16.9259 3.02489C16.1975 2.73976 15.4691 2.30588 14.8395 1.8596Z" fill="#9D791C"/>
<path d="M18.1852 3.78098C17.9506 3.44627 17.7654 3.22313 17.2963 2.64049C17.0494 2.34297 16.9136 2.16941 16.7037 2.00826C16.8395 1.99586 17.0864 2.08264 17.2963 2.2066C17.8272 2.55371 18.2469 3.26032 18.3704 3.86776L18.1852 3.78098Z" fill="#9D791C"/>
<path d="M20.2346 4.76054C19.8889 4.52501 19.5926 4.41344 19.321 4.26468C19.2593 3.92996 18.7407 2.96302 18.2963 2.71509C18.5309 2.75228 18.7161 2.85145 18.9012 2.95063C19.4815 3.27294 20.2469 4.04153 20.2346 4.76054Z" fill="#9D791C"/>
<path d="M2.25926 5.33058C3.46914 4.64876 3.64197 3.50826 4.34568 3.24793C4.74074 3.09917 5.07407 3.01239 5.74074 2.88843C5.12346 3.59504 3.38272 5.08264 2.25926 5.33058Z" fill="#9D791C"/>
<path d="M3.2716 6.45867C4.33333 5.86363 5.24691 4.32644 6.5679 3.54545C8.32099 2.51652 9.22222 2.70247 10.8519 2.55371C10.5309 2.75206 10.1605 2.82644 9.81482 2.9628C8.19753 3.57024 6.77778 4.69834 5.32099 5.5785C4.81481 5.88842 3.97531 6.44627 3.2716 6.45867Z" fill="#9D791C"/>
<path d="M5.18518 7.30179C5.98765 6.58278 6.75309 5.78939 7.58025 5.07038C8.23457 4.50014 9 3.97948 9.81481 3.58278C10.2099 3.38443 11.8889 2.777 13 2.88857C12.7531 2.96295 11.9383 3.22328 10.679 4.07865C9.81481 4.67369 8.85185 5.14476 8.02469 5.72741C7.45679 6.1365 6.93827 6.47121 6.34568 6.83071C6.03704 7.04146 5.53086 7.2646 5.18518 7.30179Z" fill="#9D791C"/>
<path d="M12.037 8.1448C12.5432 7.87207 13.0247 7.46298 13.5679 7.21505C15.0247 6.21092 17.3827 5.46711 19.1605 5.61588C19.4074 5.64067 19.6543 5.69026 19.8395 5.62827C19.7778 5.33075 19.1728 5.12001 18.9136 5.07042C16.7654 4.62414 14.9012 5.42992 13.1975 6.74397C12.642 7.19025 12.0864 7.69852 12.037 8.1448Z" fill="#9D791C"/>
<path d="M7.77777 7.74811C8.22222 7.32662 8.46913 6.76877 8.82716 6.2853C9.90123 4.89687 11.4074 3.86794 13.0988 3.45885C13.716 3.31009 14.6049 3.23571 15.5309 3.44645C14.8765 3.55802 14.3333 3.71918 13.8519 3.90513C12.2963 4.52497 10.6173 5.72745 9.2716 6.81835C8.77777 7.22744 8.4321 7.62414 7.77777 7.74811Z" fill="#9D791C"/>
<path d="M9.95062 7.99601C10.6173 7.87204 11.1111 7.37617 11.642 6.97948C13.0864 5.91336 15.2099 4.79766 16.4568 4.51254C16.6914 4.46295 17.3951 4.277 17.2222 4.19022C16.9877 4.07865 16.7284 4.05386 16.4568 4.04146C14.9753 4.00427 13.6914 4.51254 12.5556 5.33072C11.5185 6.06212 10.9012 7.35138 9.95062 7.99601Z" fill="#9D791C"/>
</svg>
