<svg width="25" height="9" viewBox="0 0 25 9" fill="none" xmlns="http://www.w3.org/2000/svg">
<g clip-path="url(#clip0)">
<path d="M22.642 6.29755C22.2716 5.75209 21.7161 5.26862 21.2222 4.80995C20.926 4.53722 20.5185 4.2273 20.3457 3.8678C20.8395 3.88019 21.1976 4.11573 21.5432 4.45044C22.1358 4.9959 22.7284 5.80168 22.642 6.29755Z" fill="#373F41"/>
<path d="M24.963 8.52899C23.1235 6.85544 20.7284 5.29346 18.5309 4.16536C14.8889 2.29346 10.642 1.48767 6.5679 1.89676C3.98765 2.1447 0.814815 2.8885 0 4.40089C2.92593 3.14883 5.11111 2.52899 6.69136 2.21908C10.3333 1.51246 15.2963 2.69015 18.4321 4.35131C20.6543 5.52899 23.0988 7.31412 24.963 9.00007C25.0123 8.8885 25 8.70255 24.963 8.52899Z" fill="#373F41"/>
<path d="M15.123 7.14056C16.2465 6.38437 17.407 6.18602 18.728 6.12403C19.8885 6.07445 21.0613 6.22321 21.8638 6.74387C22.1107 6.90503 22.1601 6.9918 22.086 7.02899C22.0119 7.07858 21.8391 7.07858 21.6292 7.09098C19.5181 7.17775 18.1601 6.44635 15.123 7.14056Z" fill="#373F41"/>
<path d="M14.3941 2.20667C13.2089 1.93394 12.3077 1.04138 11.1225 0.781051C10.1348 0.570307 8.87558 0.533117 8.17188 0.533117C8.61632 0.285183 8.98669 0.124026 9.64101 0.0248521C10.4064 -0.0743214 11.2336 0.0992323 11.962 0.421546C12.925 0.830637 13.5052 1.68601 14.3941 2.20667Z" fill="#373F41"/>
<path d="M6.91406 1.45046C7.90172 0.818224 11.482 0.706653 11.9264 1.69839C10.1239 1.40087 9.13628 1.35128 6.91406 1.45046Z" fill="#373F41"/>
<path d="M14.8389 1.8596C14.6537 1.72324 14.3204 1.52489 14.345 1.25216C14.6537 1.23976 15.0241 1.35134 15.308 1.5001C15.7525 1.72324 16.345 2.2191 16.6907 2.66538C16.7895 2.78935 16.8759 2.91332 16.9253 3.02489C16.1969 2.73976 15.4685 2.30588 14.8389 1.8596Z" fill="#373F41"/>
<path d="M18.1846 3.78105C17.95 3.44633 17.7649 3.22319 17.2957 2.64055C17.0488 2.34303 16.913 2.16948 16.7031 2.00832C16.8389 1.99592 17.0858 2.0827 17.2957 2.20667C17.8266 2.55377 18.2463 3.26038 18.3698 3.86782L18.1846 3.78105Z" fill="#373F41"/>
<path d="M20.2351 4.76042C19.8895 4.52488 19.5932 4.41331 19.3216 4.26455C19.2598 3.92984 18.7413 2.9629 18.2969 2.71497C18.5314 2.75216 18.7166 2.85133 18.9018 2.9505C19.4821 3.27282 20.2475 4.04141 20.2351 4.76042Z" fill="#373F41"/>
<path d="M2.25977 5.33052C3.46964 4.6487 3.64248 3.5082 4.34619 3.24787C4.74125 3.09911 5.07458 3.01233 5.74125 2.88837C5.12396 3.59498 3.38322 5.08258 2.25977 5.33052Z" fill="#373F41"/>
<path d="M3.27148 6.45873C4.33321 5.86369 5.24679 4.3265 6.56778 3.54551C8.32087 2.51658 9.2221 2.70253 10.8517 2.55377C10.5307 2.75212 10.1604 2.8265 9.81469 2.96286C8.19741 3.5703 6.77766 4.6984 5.32087 5.57856C4.81469 5.88848 3.97519 6.44633 3.27148 6.45873Z" fill="#373F41"/>
<path d="M5.18555 7.30167C5.98802 6.58266 6.75345 5.78927 7.58061 5.07026C8.23493 4.50001 9.00036 3.97935 9.81518 3.58266C10.2102 3.38431 11.8892 2.77687 13.0004 2.88844C12.7534 2.96282 11.9386 3.22316 10.6794 4.07853C9.81518 4.67357 8.85221 5.14464 8.02505 5.72729C7.45715 6.13638 6.93863 6.47109 6.34604 6.83059C6.0374 7.04134 5.53123 7.26448 5.18555 7.30167Z" fill="#373F41"/>
<path d="M12.0371 8.14474C12.5433 7.87201 13.0248 7.46292 13.568 7.21499C15.0248 6.21086 17.3828 5.46705 19.1606 5.61581C19.4075 5.64061 19.6544 5.69019 19.8396 5.62821C19.7779 5.33069 19.1729 5.11995 18.9137 5.07036C16.7655 4.62408 14.9013 5.42986 13.1976 6.74391C12.642 7.19019 12.0865 7.69846 12.0371 8.14474Z" fill="#373F41"/>
<path d="M7.77734 7.74798C8.22179 7.3265 8.4687 6.76865 8.82673 6.28517C9.9008 4.89674 11.407 3.86782 13.0983 3.45873C13.7156 3.30997 14.6045 3.23559 15.5304 3.44633C14.8761 3.5579 14.3329 3.71906 13.8514 3.90501C12.2959 4.52484 10.6169 5.72732 9.27117 6.81823C8.77734 7.22732 8.43166 7.62402 7.77734 7.74798Z" fill="#373F41"/>
<path d="M9.95117 7.99589C10.6178 7.87192 11.1117 7.37605 11.6425 6.97936C13.087 5.91324 15.2104 4.79754 16.4573 4.51241C16.6919 4.46283 17.3956 4.27688 17.2228 4.1901C16.9882 4.07853 16.729 4.05374 16.4573 4.04134C14.9759 4.00415 13.6919 4.51241 12.5561 5.3306C11.5191 6.062 10.9018 7.35126 9.95117 7.99589Z" fill="#373F41"/>
</g>
<defs>
<clipPath id="clip0">
<rect width="25" height="9" fill="white"/>
</clipPath>
</defs>
</svg>
